<?xml version="1.0"?>
<svg xmlns="http://www.w3.org/2000/svg" version="1.2" baseProfile="tiny" width="800" height="444" viewBox="0 0 800 444" stroke-linecap="round" stroke-linejoin="round">
    <g id="singaporeFinal">
        <path d="M 286.0134 60.7867 286.4644 78.8271 279.3439 113.5394 280.234 154.482 290.9147 169.613 332.7475 203.4353 334.5276 218.5663 321.1767 232.8072 323.8469 243.4879 338.9779 247.9382 370.1299 277.3101 372.8001 300.4516 370.1299 315.5826 376.3603 335.1639 395.0515 355.6353 408.4024 364.5359 444.8948 375.2166 456.0606 379.8463 454.4091 394.7059 445.3409 396.6486 433.6818 384.9923 418.7841 386.2875 401.9432 393.4107 380.5682 386.9351 372.1477 389.5253 368.2614 393.4107 348.8295 379.8118 330.0455 408.3049 317.0909 401.8292 332.6364 373.3361 314.5 362.3275 301.5455 383.6972 264.625 361.0324 271.75 348.0811 298.3068 364.2702 304.7841 355.2043 285.3523 341.6054 288.5909 333.8347 279.5227 326.064 272.3977 328.0066 260.7386 330.5969 245.1932 325.4164 226.4091 321.531 207.625 324.1213 190.7841 324.7688 185.6023 320.2359 172.6477 320.2359 139.6136 325.4164 129.25 329.3018 103.9886 346.1384 100.75 339.0152 90.3864 331.2444 77.4318 322.1786 62.5341 302.1043 52.1705 294.3336 46.3409 301.4567 55.4091 315.703 76.1364 354.5567 73.5455 361.0324 65.7727 364.2702 56.7045 362.9751 54.7614 381.7545 15.25 398.5913 12.6591 419.3136 21.7273 441.9787 1 442.6263 1.6477 383.6972 1.6477 370.7459 13.9545 361.6799 19.1364 348.0811 13.9545 335.7774 45.0455 242.5293 46.3409 231.521 51.5227 226.9882 59.9432 235.4063 65.7727 241.8818 78.7273 241.8818 65.7727 227.6357 58 215.9799 68.3636 208.2094 78.7273 204.9716 83.9091 214.0373 87.1477 209.5045 83.9091 205.6192 80.6705 197.8487 74.1932 188.7831 78.7273 183.6027 85.8523 187.488 107.2273 187.488 111.1136 187.488 115.6477 199.1438 121.4773 192.0208 113.7045 182.9552 121.4773 177.1273 118.2386 167.4143 96.8636 169.3569 90.3864 166.1192 95.5682 155.111 99.4545 147.3406 98.8068 124.6769 115.6477 111.0788 121.4773 89.0628 138.3182 77.4073 144.7955 74.1697 160.3409 70.2845 179.7727 50.2113 199.2045 38.556 217.3409 39.2035 231.5909 45.6787 237.4205 54.744 240.0114 67.6944 239.3636 78.0548 235.4773 92.9479 224.4659 106.546 217.3409 116.9065 225.1136 118.8491 234.1818 107.8411 247.7841 96.8331 257.5 82.5875 255.5568 73.5222 249.7273 59.9242 263.3295 64.4568 273.6932 61.8667 284.0568 63.1618 286.0134 60.7867 Z"/>
        <path d="M 542.9602 161.2529 533.9007 164.2727 517.8796 172.2832 502.7486 185.6341 496.5182 202.5452 495.6282 220.3464 498.2983 241.7078 515.2094 268.4095 543.6913 312.9125 555.4707 329.7401 539.2614 335.7774 518.5341 347.4335 495.8636 365.5653 471.8977 383.0496 456.3523 377.2215 456.0606 379.8463 444.8948 375.2166 408.4024 364.5359 395.0515 355.6353 376.3603 335.1639 370.1299 315.5826 372.8001 300.4516 370.1299 277.3101 369.6718 276.8782 370.1299 276.4201 402.172 247.0481 403.0621 227.4668 395.0515 215.006 404.8422 197.2049 439.5545 175.8435 435.1042 156.2622 415.5229 135.7908 420.8632 117.0996 435.1042 103.7487 476.0469 104.6388 498.2983 100.1885 510.7592 85.0575 513.5945 81.4121 539.9091 96.8331 545.7386 102.0133 556.1023 97.4806 567.7614 94.243 572.9432 100.0708 573.0557 101.1397 563.2726 112.6493 555.2621 126.0002 547.2516 151.8119 542.9602 161.2529 Z"/>
        <path d="M 513.5945 81.4121 510.7592 85.0575 498.2983 100.1885 476.0469 104.6388 435.1042 103.7487 420.8632 117.0996 415.5229 135.7908 435.1042 156.2622 439.5545 175.8435 404.8422 197.2049 395.0515 215.006 403.0621 227.4668 402.172 247.0481 370.1299 276.4201 369.6718 276.8782 338.9779 247.9382 323.8469 243.4879 321.1767 232.8072 334.5276 218.5663 332.7475 203.4353 290.9147 169.613 280.234 154.482 279.3439 113.5394 286.4644 78.8271 286.0134 60.7867 293.125 52.1539 300.25 43.0886 316.4432 37.9084 354.6591 11.3602 370.2045 2.295 388.9886 1 399.3523 4.8851 405.8295 11.3602 409.7159 6.1801 427.2045 14.5978 453.7614 30.7857 456.3523 36.6134 463.4773 55.3915 475.7841 69.637 466.7159 85.8251 479.6705 92.3004 502.3409 74.8172 513.5945 81.4121 Z"/>
        <path d="M 660.1185 170.2712 651.3884 181.1838 633.5872 187.4142 632.6972 201.6551 625.5767 222.1265 611.3358 221.2364 603.3252 213.2259 584.634 204.3253 555.2621 193.6446 541.9112 181.1838 542.8013 161.6025 547.2516 151.8119 555.2621 126.0002 563.2726 112.6493 573.0557 101.1397 574.2386 112.3738 582.0114 123.3818 595.6136 133.0948 603.3864 137.6276 613.1023 144.1029 622.1705 157.0536 640.3068 166.7667 656.5 170.6519 660.1185 170.2712 Z"/>
        <path d="M 555.4707 329.7401 543.6913 312.9125 515.2094 268.4095 498.2983 241.7078 495.6282 220.3464 496.5182 202.5452 502.7486 185.6341 517.8796 172.2832 533.9007 164.2727 542.9602 161.2529 542.8013 161.6025 541.9112 181.1838 555.2621 193.6446 584.634 204.3253 603.3252 213.2259 611.3358 221.2364 625.5767 222.1265 632.6972 201.6551 633.5872 187.4142 651.3884 181.1838 660.1185 170.2712 668.8068 169.3569 685.6477 159.6438 685.6477 154.4635 690.8295 149.9307 710.9091 149.9307 719.9773 149.9307 732.9318 155.111 740.7045 165.4716 748.4773 184.2503 747.1818 192.6683 756.25 193.9634 762.0795 191.3732 773.7386 197.2011 799 208.8569 775.0341 272.3167 778.2727 277.4971 796.4091 276.202 797.0568 295.6287 789.9318 296.2762 789.2841 287.858 778.2727 288.5056 779.5682 294.9811 756.8977 296.9238 738.7614 304.0469 718.6818 298.2189 707.0227 300.8091 704.4318 292.3909 687.5909 293.0385 637.0682 303.3994 607.9205 313.1128 572.2955 323.4737 555.4707 329.7401 Z"/>
    </g>
</svg>